# xmcd
#
# Track frame offsets: 
#        150
#        18152
#        35880
#        57375
#        75270
#        92070
#        111442
#        131910
#        154712
#        175050
#
# Disc length: 2646 seconds
#
# Revision: 8
# Processed by: cddbd v1.5PL3 Copyright (c) Steve Scherf et al.
# Submitted via: ExactAudioCopy v0.95a4
#
DISCID=7c0a540a
DTITLE=Cher - Believe
DYEAR=1998
DGENRE=Rock
TTITLE0=Believe
TTITLE1=The Power
TTITLE2=Runaway
TTITLE3=All Or Nothing
TTITLE4=Strong Enough
TTITLE5=Dov'è L'amore
TTITLE6=Takin' Back My Heart
TTITLE7=Taxi Taxi
TTITLE8=Love Is The Groove
TTITLE9=We All Sleep Alone
EXTD=YEAR: 1999
EXTT0=
EXTT1=
EXTT2=
EXTT3=
EXTT4=
EXTT5=
EXTT6=
EXTT7=
EXTT8=
EXTT9=
PLAYORDER=
